<?xml version="1.0" standalone="no"?>
<!DOCTYPE svg PUBLIC "-//W3C//DTD SVG 20010904//EN"
 "http://www.w3.org/TR/2001/REC-SVG-20010904/DTD/svg10.dtd">
<svg version="1.0" xmlns="http://www.w3.org/2000/svg"
 width="50.000000pt" height="50.000000pt" viewBox="0 0 50.000000 50.000000"
 preserveAspectRatio="xMidYMid meet">
<metadata>
Created by potrace 1.16, written by Peter Selinger 2001-2019
</metadata>
<g transform="translate(0.000000,50.000000) scale(0.100000,-0.100000)"
fill="#000000" stroke="none">
<path d="M42 363 c3 -79 9 -109 31 -156 25 -54 28 -57 54 -51 30 7 113 87 113
109 0 8 -5 17 -10 20 -16 10 -12 42 10 77 l20 33 -2 -62 c-1 -59 0 -64 35
-100 20 -20 37 -40 37 -44 0 -4 14 -12 31 -19 25 -11 33 -11 44 1 27 28 45
109 45 199 l0 90 -206 0 -206 0 4 -97z"/>
</g>
</svg>
